<svg role="img" viewBox="-1.2 -1.2 24 24" xmlns="http://www.w3.org/2000/svg" id="Farcaster--Streamline-Simple-Icons" height="24" width="24" style="background-color: #ffffff"><desc>Farcaster Streamline Icon: https://streamlinehq.com</desc><title>Farcaster</title><path d="M16.416 0.216H5.184C2.3210100000000002 0.216 0 2.53692 0 5.4v10.8c0 2.86299 2.3210100000000002 5.184 5.184 5.184h11.232000000000001c2.86308 0 5.184 -2.3210100000000002 5.184 -5.184V5.4C21.6 2.53692 19.27908 0.216 16.416 0.216m0.73395 15.449580000000001v0.4536c0.25812 -0.02304 0.49122 0.17145000000000002 0.48951000000000006 0.4311v0.51192h-4.62933v-0.51192c-0.00171 -0.25965 0.23184 -0.45423 0.48987 -0.4311v-0.4536c0 -0.198 0.13725 -0.3618 0.3222 -0.4122l-0.00855 -3.92805c-0.14301000000000003 -1.56294 -1.47618 -2.78811 -3.09915 -2.78811 -1.62342 0 -2.9561400000000004 1.22517 -3.09915 2.78811l-0.00864 3.9220200000000003c0.20484 0.03816 0.47862000000000005 0.18747000000000003 0.48555 0.41832v0.4536c0.25767 -0.02304 0.49112999999999996 0.17145000000000002 0.48941999999999997 0.4311v0.51192H3.95235v-0.51192c-0.00171 -0.25965 0.23175 -0.45423 0.48941999999999997 -0.4311v-0.4536c0 -0.22761 0.18099 -0.40932 0.40824 -0.42516v-7.1055h-0.44145L3.86082 6.3072l2.3764499999999997 -0.00045000000000000004V4.537710000000001h8.954550000000001v1.76904h2.53971l-0.54819 1.8282600000000002h-0.44109v7.10541c0.22671000000000002 0.01593 0.4077 0.19755 0.4077 0.42516" fill="#8a63d2" stroke-width="1"></path></svg>